<svg width="600" height="113" viewBox="0 0 600 113" fill="none" xmlns="http://www.w3.org/2000/svg">
<path d="M138.061 17.4483V20.0734C137.511 25.858 135.216 30.2279 131.145 33.1674C127.073 36.1226 121.587 37.6002 114.655 37.6002H89.3474V61.4462L89.2688 61.5405H73.0938L72.9995 61.4462V24.1289L73.0938 24.0346H113.744C115.85 24.0346 117.658 23.6259 119.167 22.8242C120.66 22.0068 121.43 20.6707 121.43 18.8001C121.43 16.9295 120.676 15.4991 119.167 14.6817C117.658 13.8643 115.85 13.4713 113.744 13.4713H73.0938L72.9995 13.377V0.0943149L73.0938 0H116.557C122.515 0 127.403 1.50904 131.239 4.52712C135.074 7.52947 137.338 11.8365 138.061 17.4483Z" fill="#E5A83C"/>
<path d="M382.399 17.4483V20.0734C381.849 25.858 379.554 30.2279 375.483 33.1674C371.412 36.1226 365.926 37.6002 358.994 37.6002H333.686V61.4462L333.607 61.5405H317.432L317.338 61.4462V24.1289L317.432 24.0346H358.082C360.188 24.0346 361.996 23.6259 363.505 22.8242C364.998 22.0068 365.769 20.6707 365.769 18.8001C365.769 16.9295 365.014 15.4991 363.505 14.6817C361.996 13.8643 360.188 13.4713 358.082 13.4713H317.432L317.338 13.377V0.0943149L317.432 0H360.896C366.853 0 371.742 1.50904 375.577 4.52712C379.413 7.52947 381.676 11.8365 382.399 17.4483Z" fill="#E5A83C"/>
<path d="M188.111 61.5248H195.515L218.465 22.95V61.4304L218.559 61.5248H234.813L234.907 61.4304V0.0943149L234.813 0H215.038L191.821 38.7634L168.51 0H148.814L148.719 0.0943149V61.4304L148.814 61.5248H165.067L165.161 61.4304V22.95L188.111 61.5248Z" fill="#E5A83C"/>
<path d="M408.368 24.0346V22.95L408.289 22.8556L408.195 22.95L407.928 22.6827L408.368 22.3212V0.0943149L408.289 0H392.114L392.02 0.0943149V61.4304L392.114 61.5248H408.289L408.368 61.4304V37.5845H409.091L436.379 61.5248H457.066L457.16 61.3518L424.731 30.8095L457.254 0.18863L457.16 0H436.474L409.091 24.0346H408.368Z" fill="#E5A83C"/>
<path d="M465.554 13.377L465.648 13.4713H524.202L524.281 13.377V0.0943149L524.202 0H465.648L465.554 0.0943149V13.377Z" fill="#E5A83C"/>
<path d="M481.918 37.5851H524.202L524.281 37.4908V24.1295L524.202 24.0352H465.648L465.554 24.1295V61.431L465.648 61.5253H524.202L524.281 61.431V48.0697L524.202 47.9754H481.918V37.5851Z" fill="#E5A83C"/>
<path d="M599.906 13.4713L600 13.377V0.0943149L599.906 0H535.033L534.938 0.0943149V13.377L535.033 13.4713H559.24V61.4304L559.335 61.5248H575.604L575.698 61.4304V13.4713H599.906Z" fill="#E5A83C"/>
<path d="M64.4328 61.4462L64.3385 61.5248H48.1478L48.0849 61.4462L45.3812 53.4451L40.8384 39.9895L32.2557 14.5559L23.5944 39.9895H32.2243L36.7357 53.4451H19.0045L16.285 61.4462L16.175 61.5248H0.0943149L0 61.4462L20.9851 0.0785958L21.0479 0H43.2748L43.3849 0.0785958L64.4328 61.4462Z" fill="#E5A83C"/>
<path d="M307.734 61.4462L307.64 61.5248H291.449L291.386 61.4462L288.682 53.4451L284.139 39.9895L275.557 14.5559L266.895 39.9895H278.779L283.306 53.4451H262.305L259.586 61.4462L259.476 61.5248H243.411L243.301 61.4462L264.286 0.0785958L264.365 0H286.576L286.686 0.0785958L307.734 61.4462Z" fill="#E5A83C"/>
<path d="M7.93965 99.961L6.47255 102.723V112H1.72607V81.7949H6.47255V94.9556L12.7724 81.7949H17.4326L10.8307 95.2576L17.4326 112H12.5567L7.93965 99.961Z" fill="#FEFBFB"/>
<path d="M34.911 112H30.1213L29.3015 106.52H23.4763L22.6564 112H18.2983L23.1311 81.7949H30.0782L34.911 112ZM24.0804 102.421H28.6543L26.3673 87.1455L24.0804 102.421Z" fill="#FEFBFB"/>
<path d="M40.748 81.7949V93.4454C40.748 94.5385 40.9637 95.3008 41.3952 95.7323C41.8555 96.1638 42.4596 96.3795 43.2075 96.3795C43.9267 96.3795 44.502 96.1926 44.9335 95.8186C45.365 95.4159 45.6095 94.7398 45.6671 93.7906V81.7949H50.4136V112H45.6671V100.392C45.2643 100.536 44.8472 100.637 44.4157 100.695C44.013 100.723 43.5671 100.738 43.0781 100.738C40.748 100.738 38.9789 100.09 37.7707 98.7959C36.5912 97.4727 36.0015 95.5885 36.0015 93.1433V81.7949H40.748Z" fill="#FEFBFB"/>
<path d="M58.5979 94.5241H65.1135V98.8391H58.5979V107.685H66.7963V112H53.8514V81.7949H66.7963V86.1099H58.5979V94.5241Z" fill="#FEFBFB"/>
<path d="M83.3328 100.738V104.751C83.3328 107.196 82.7287 109.08 81.5205 110.403C80.3411 111.698 78.5863 112.345 76.2562 112.345C73.9262 112.345 72.157 111.698 70.9488 110.403C69.7694 109.08 69.1797 107.196 69.1797 104.751V89.0441C69.1797 86.5989 69.7694 84.7291 70.9488 83.4346C72.157 82.1113 73.9262 81.4497 76.2562 81.4497C78.5863 81.4497 80.3411 82.1113 81.5205 83.4346C82.7287 84.7291 83.3328 86.5989 83.3328 89.0441V91.9783H78.8452V88.742C78.8452 87.6489 78.6151 86.8866 78.1548 86.4551C77.7233 85.9948 77.1336 85.7647 76.3857 85.7647C75.6378 85.7647 75.0337 85.9948 74.5734 86.4551C74.1419 86.8866 73.9262 87.6489 73.9262 88.742V105.053C73.9262 106.146 74.1419 106.908 74.5734 107.34C75.0337 107.771 75.6378 107.987 76.3857 107.987C77.1336 107.987 77.7233 107.771 78.1548 107.34C78.6151 106.908 78.8452 106.146 78.8452 105.053V100.738H83.3328Z" fill="#FEFBFB"/>
<path d="M85.0457 81.7949H99.7166V86.1099H94.7544V112H90.0079V86.1099H85.0457V81.7949Z" fill="#FEFBFB"/>
<path d="M109.052 81.7949C111.526 81.7949 113.31 82.3702 114.403 83.5209C115.525 84.6716 116.086 86.4119 116.086 88.742V89.8208C116.086 91.3742 115.841 92.6543 115.352 93.6611C114.863 94.6679 114.086 95.4159 113.022 95.9049C114.316 96.3939 115.223 97.1994 115.74 98.3213C116.287 99.4144 116.56 100.766 116.56 102.377V104.837C116.56 107.167 115.956 108.951 114.748 110.187C113.54 111.396 111.742 112 109.354 112H101.889V81.7949H109.052ZM106.636 98.4076V107.685H109.354C110.16 107.685 110.764 107.469 111.166 107.038C111.598 106.606 111.814 105.829 111.814 104.707V102.075C111.814 100.666 111.569 99.7021 111.08 99.1843C110.62 98.6665 109.843 98.4076 108.75 98.4076H106.636ZM106.636 86.1099V94.0926H108.491C109.383 94.0926 110.073 93.8625 110.562 93.4022C111.08 92.9419 111.339 92.1077 111.339 90.8995V89.2167C111.339 88.1235 111.138 87.3325 110.735 86.8434C110.361 86.3544 109.757 86.1099 108.923 86.1099H106.636Z" fill="#FEFBFB"/>
<path d="M124.123 94.5241H130.639V98.8391H124.123V107.685H132.322V112H119.377V81.7949H132.322V86.1099H124.123V94.5241Z" fill="#FEFBFB"/>
<path d="M139.883 112H135.137V81.7949H139.883V94.7398H145.277V81.7949H150.109V112H145.277V99.0548H139.883V112Z" fill="#FEFBFB"/>
<path d="M158.298 112H153.551V81.7949H158.298V94.7398H163.691V81.7949H168.524V112H163.691V99.0548H158.298V112Z" fill="#FEFBFB"/>
<path d="M176.281 105.053C176.281 106.146 176.496 106.922 176.928 107.383C177.388 107.814 177.992 108.03 178.74 108.03C179.488 108.03 180.078 107.814 180.509 107.383C180.969 106.922 181.2 106.146 181.2 105.053V88.742C181.2 87.6489 180.969 86.8866 180.509 86.4551C180.078 85.9948 179.488 85.7647 178.74 85.7647C177.992 85.7647 177.388 85.9948 176.928 86.4551C176.496 86.8866 176.281 87.6489 176.281 88.742V105.053ZM171.534 89.0441C171.534 86.5989 172.153 84.7291 173.389 83.4346C174.626 82.1113 176.41 81.4497 178.74 81.4497C181.07 81.4497 182.854 82.1113 184.091 83.4346C185.328 84.7291 185.946 86.5989 185.946 89.0441V104.751C185.946 107.196 185.328 109.08 184.091 110.403C182.854 111.698 181.07 112.345 178.74 112.345C176.41 112.345 174.626 111.698 173.389 110.403C172.153 109.08 171.534 107.196 171.534 104.751V89.0441Z" fill="#FEFBFB"/>
<path d="M193.694 94.5241H200.209V98.8391H193.694V107.685H201.892V112H188.947V81.7949H201.892V86.1099H193.694V94.5241Z" fill="#FEFBFB"/>
<path d="M225.129 100.738V104.751C225.129 107.196 224.525 109.08 223.317 110.403C222.137 111.698 220.382 112.345 218.052 112.345C215.722 112.345 213.953 111.698 212.745 110.403C211.565 109.08 210.976 107.196 210.976 104.751V89.0441C210.976 86.5989 211.565 84.7291 212.745 83.4346C213.953 82.1113 215.722 81.4497 218.052 81.4497C220.382 81.4497 222.137 82.1113 223.317 83.4346C224.525 84.7291 225.129 86.5989 225.129 89.0441V91.9783H220.641V88.742C220.641 87.6489 220.411 86.8866 219.951 86.4551C219.519 85.9948 218.93 85.7647 218.182 85.7647C217.434 85.7647 216.83 85.9948 216.369 86.4551C215.938 86.8866 215.722 87.6489 215.722 88.742V105.053C215.722 106.146 215.938 106.908 216.369 107.34C216.83 107.771 217.434 107.987 218.182 107.987C218.93 107.987 219.519 107.771 219.951 107.34C220.411 106.908 220.641 106.146 220.641 105.053V100.738H225.129Z" fill="#FEFBFB"/>
<path d="M232.883 112H228.136V81.7949H232.883V94.7398H238.276V81.7949H243.109V112H238.276V99.0548H232.883V112Z" fill="#FEFBFB"/>
<path d="M261.869 112H257.079L256.259 106.52H250.434L249.614 112H245.256L250.089 81.7949H257.036L261.869 112ZM251.038 102.421H255.612L253.325 87.1455L251.038 102.421Z" fill="#FEFBFB"/>
<path d="M271.028 81.7949C273.416 81.7949 275.185 82.4278 276.336 83.6935C277.515 84.9592 278.105 86.8147 278.105 89.2598V93.1865C278.105 95.6316 277.515 97.4871 276.336 98.7528C275.185 100.019 273.416 100.651 271.028 100.651H268.785V112H264.038V81.7949H271.028ZM268.785 86.1099V96.3364H271.028C271.776 96.3364 272.352 96.135 272.754 95.7323C273.157 95.3296 273.359 94.5816 273.359 93.4885V88.9578C273.359 87.8646 273.157 87.1167 272.754 86.714C272.352 86.3113 271.776 86.1099 271.028 86.1099H268.785Z" fill="#FEFBFB"/>
<path d="M287.122 86.1099C286.288 86.1099 285.67 86.3544 285.267 86.8434C284.893 87.3325 284.706 88.1235 284.706 89.2167V92.194C284.706 93.4022 284.95 94.2364 285.439 94.6967C285.957 95.157 286.662 95.3871 287.554 95.3871H289.409V86.1099H287.122ZM279.398 112C279.629 111.424 279.772 110.863 279.83 110.317C279.888 109.742 279.916 109.08 279.916 108.332V103.672C279.916 102.09 280.132 100.752 280.564 99.6589C281.024 98.537 281.858 97.7316 283.066 97.2425C280.995 96.2645 279.959 94.222 279.959 91.1153V88.742C279.959 86.4119 280.506 84.6716 281.599 83.5209C282.721 82.3702 284.519 81.7949 286.993 81.7949H294.156V112H289.409V99.7021H287.77C286.676 99.7021 285.885 99.9897 285.396 100.565C284.907 101.14 284.663 102.133 284.663 103.542V108.289C284.663 108.893 284.648 109.396 284.62 109.799C284.62 110.202 284.591 110.533 284.533 110.792C284.505 111.05 284.461 111.266 284.404 111.439C284.346 111.611 284.289 111.798 284.231 112H279.398Z" fill="#FEFBFB"/>
<path d="M301.204 112H296.328L302.93 95.2576L296.328 81.7949H300.988L307.245 94.8693V81.7949H312.035V94.8693L318.291 81.7949H322.951L316.35 95.2576L322.951 112H318.076L313.459 99.961L312.035 102.636V112H307.245V102.636L305.821 99.961L301.204 112Z" fill="#FEFBFB"/>
<path d="M329.843 94.5241H336.359V98.8391H329.843V107.685H338.042V112H325.097V81.7949H338.042V86.1099H329.843V94.5241Z" fill="#FEFBFB"/>
<path d="M345.603 112H340.857V81.7949H345.603V94.7398H350.997V81.7949H355.83V112H350.997V99.0548H345.603V112Z" fill="#FEFBFB"/>
<path d="M364.147 112H359.271V81.7949H363.5V99.8747L368.376 81.7949H374.33V112H370.059V90.1228L364.147 112Z" fill="#FEFBFB"/>
<path d="M382.516 94.5241H389.032V98.8391H382.516V107.685H390.715V112H377.77V81.7949H390.715V86.1099H382.516V94.5241Z" fill="#FEFBFB"/>
<path d="M405.106 112H400.23V81.7949H404.458V99.8747L409.334 81.7949H415.289V112H411.017V90.1228L405.106 112Z" fill="#FEFBFB"/>
<path d="M434.404 88.742C434.404 87.6489 434.174 86.8866 433.713 86.4551C433.282 85.9948 432.692 85.7647 431.944 85.7647C431.196 85.7647 430.592 85.9948 430.132 86.4551C429.7 86.8866 429.485 87.6489 429.485 88.742V91.9783H424.997V89.0441C424.997 86.5989 425.587 84.7291 426.766 83.4346C427.974 82.1113 429.744 81.4497 432.074 81.4497C434.404 81.4497 436.158 82.1113 437.338 83.4346C438.546 84.7291 439.15 86.5989 439.15 89.0441V104.751C439.15 107.196 438.546 109.08 437.338 110.403C436.158 111.698 434.404 112.345 432.074 112.345C429.744 112.345 427.974 111.698 426.766 110.403C425.587 109.08 424.997 107.196 424.997 104.751V100.738H429.485V105.053C429.485 106.146 429.7 106.908 430.132 107.34C430.592 107.771 431.196 107.987 431.944 107.987C432.692 107.987 433.282 107.771 433.713 107.34C434.174 106.908 434.404 106.146 434.404 105.053V98.8391H427.888V94.5241H434.404V88.742Z" fill="#FEFBFB"/>
<path d="M448.371 99.961L446.904 102.723V112H442.158V81.7949H446.904V94.9556L453.204 81.7949H457.864L451.262 95.2576L457.864 112H452.988L448.371 99.961Z" fill="#FEFBFB"/>
<path d="M464.9 112H460.024V81.7949H464.253V99.8747L469.129 81.7949H475.084V112H470.812V90.1228L464.9 112Z" fill="#FEFBFB"/>
<path d="M483.27 112H478.523V81.7949H493.496V112H488.663V86.1099H483.27V112Z" fill="#FEFBFB"/>
<path d="M501.814 112H496.938V81.7949H501.166V99.8747L506.042 81.7949H511.997V112H507.725V90.1228L501.814 112Z" fill="#FEFBFB"/>
<path d="M522.427 81.7949C524.814 81.7949 526.583 82.4278 527.734 83.6935C528.913 84.9592 529.503 86.8147 529.503 89.2598V93.1865C529.503 95.6316 528.913 97.4871 527.734 98.7528C526.583 100.019 524.814 100.651 522.427 100.651H520.183V112H515.436V81.7949H522.427ZM520.183 86.1099V96.3364H522.427C523.175 96.3364 523.75 96.135 524.153 95.7323C524.555 95.3296 524.757 94.5816 524.757 93.4885V88.9578C524.757 87.8646 524.555 87.1167 524.153 86.714C523.75 86.3113 523.175 86.1099 522.427 86.1099H520.183Z" fill="#FEFBFB"/>
<path d="M535.975 105.053C535.975 106.146 536.19 106.922 536.622 107.383C537.082 107.814 537.686 108.03 538.434 108.03C539.182 108.03 539.772 107.814 540.203 107.383C540.664 106.922 540.894 106.146 540.894 105.053V88.742C540.894 87.6489 540.664 86.8866 540.203 86.4551C539.772 85.9948 539.182 85.7647 538.434 85.7647C537.686 85.7647 537.082 85.9948 536.622 86.4551C536.19 86.8866 535.975 87.6489 535.975 88.742V105.053ZM531.228 89.0441C531.228 86.5989 531.847 84.7291 533.084 83.4346C534.321 82.1113 536.104 81.4497 538.434 81.4497C540.764 81.4497 542.548 82.1113 543.785 83.4346C545.022 84.7291 545.64 86.5989 545.64 89.0441V104.751C545.64 107.196 545.022 109.08 543.785 110.403C542.548 111.698 540.764 112.345 538.434 112.345C536.104 112.345 534.321 111.698 533.084 110.403C531.847 109.08 531.228 107.196 531.228 104.751V89.0441Z" fill="#FEFBFB"/>
<path d="M555.804 81.7949C558.278 81.7949 560.062 82.3702 561.155 83.5209C562.277 84.6716 562.838 86.4119 562.838 88.742V89.8208C562.838 91.3742 562.593 92.6543 562.104 93.6611C561.615 94.6679 560.838 95.4159 559.774 95.9049C561.069 96.3939 561.975 97.1994 562.493 98.3213C563.039 99.4144 563.312 100.766 563.312 102.377V104.837C563.312 107.167 562.708 108.951 561.5 110.187C560.292 111.396 558.494 112 556.106 112H548.641V81.7949H555.804ZM553.388 98.4076V107.685H556.106C556.912 107.685 557.516 107.469 557.919 107.038C558.35 106.606 558.566 105.829 558.566 104.707V102.075C558.566 100.666 558.321 99.7021 557.832 99.1843C557.372 98.6665 556.595 98.4076 555.502 98.4076H553.388ZM553.388 86.1099V94.0926H555.243C556.135 94.0926 556.826 93.8625 557.315 93.4022C557.832 92.9419 558.091 92.1077 558.091 90.8995V89.2167C558.091 88.1235 557.89 87.3325 557.487 86.8434C557.113 86.3544 556.509 86.1099 555.675 86.1099H553.388Z" fill="#FEFBFB"/>
<path d="M572.343 99.961L570.875 102.723V112H566.129V81.7949H570.875V94.9556L577.175 81.7949H581.835L575.234 95.2576L581.835 112H576.96L572.343 99.961Z" fill="#FEFBFB"/>
<path d="M599.314 112H594.524L593.704 106.52H587.879L587.059 112H582.701L587.534 81.7949H594.481L599.314 112ZM588.483 102.421H593.057L590.77 87.1455L588.483 102.421Z" fill="#FEFBFB"/>
</svg>
