<svg width="848" height="311" viewBox="0 0 848 311" fill="none" xmlns="http://www.w3.org/2000/svg">
<g clip-path="url(#clip0_225_2)">
<path d="M215.179 5.81022L318.015 305.501H247.399L234.966 268.527L211.969 200.471L168.576 71.9161L163.213 55.9889L157.809 71.9161L114.009 200.471L111.45 208.028H158.906L177.921 264.708H91.9875L90.6874 268.568L78.1325 305.542H7.84169L110.312 5.81022H215.179ZM218.836 0.121948H106.493L106.127 0.528253L0 310.824L0.528197 311.23H81.8299L82.3581 310.824L96.0912 270.356H185.803L162.928 202.299H119.332L163.132 73.7445L206.525 202.299L229.522 270.356L243.133 310.824L243.499 311.23H325.329L325.857 310.824L219.364 0.528253L218.836 0.121948Z" fill="#E5A83C"/>
<path d="M848 0.365675V310.824L847.634 311.189H765.398L764.87 310.824V116.041L648.707 311.23H611.327L509.832 140.744C512.514 135.097 514.586 129.043 516.252 122.623C517.796 116.853 518.811 110.678 519.583 103.73C519.705 102.43 519.827 101.17 519.827 99.8699C519.827 86.6243 518.161 75.0853 514.952 64.3994C508.532 43.1903 496.952 25.7191 480.375 12.758C474.077 7.88233 467.414 3.61612 460.182 0.0406305H512.107L630.058 196.124L747.521 0H847.594L847.959 0.365675H848Z" fill="#E5A83C"/>
<path d="M507.272 310.417L506.744 310.783H425.036L424.67 310.417L412.074 273.159L411.059 270.071L399.235 234.845L388.184 201.934L384.08 189.867H297.984L274.459 121.242H384.202C389.606 121.242 394.603 120.713 399.235 119.576C403.745 118.682 407.849 117.138 411.587 115.188C411.709 115.066 411.953 114.944 412.115 114.944C419.307 110.718 423.045 104.014 423.045 94.913C423.045 85.8117 419.307 78.5795 412.115 74.4758C411.993 74.3539 411.749 74.3539 411.587 74.232C407.849 72.1599 403.745 70.6159 399.235 69.722C394.603 68.5844 389.606 68.0562 384.202 68.0562H256.216L232.812 0H399.195C403.583 0 407.93 0.121892 412.034 0.528197H412.399C414.837 0.77198 417.031 1.05639 419.347 1.30018C440.028 4.14432 457.784 11.3359 472.411 22.7531C486.916 34.1703 496.952 49.2036 502.599 68.0968C505.809 78.3763 506.987 89.0215 506.987 99.8292C506.987 100.723 506.865 101.901 506.865 102.795C506.215 108.687 505.2 114.212 503.778 119.494C503.127 121.932 502.477 124.37 501.584 126.808V126.93C499.796 132.049 497.724 136.966 495.164 141.435C489.516 151.714 481.796 160.45 472.045 167.52C471.801 167.642 471.517 167.885 471.273 168.048C467.941 170.486 464.447 172.558 460.628 174.589L461.522 177.271L464.854 186.901L495.164 275.191L507.231 310.377L507.272 310.417Z" fill="#E5A83C"/>
</g>
<defs>
<clipPath id="clip0_225_2">
<rect width="848" height="311" fill="white"/>
</clipPath>
</defs>
</svg>
