<?xml version="1.0" encoding="UTF-8"?>
<svg id="_Слой_2" data-name="Слой 2" xmlns="http://www.w3.org/2000/svg" viewBox="0 0 208.71 93.9">
  <defs>
    <style>
      .cls-1 {
        fill: #e5a83c;
      }
    </style>
  </defs>
  <g id="_Слой_1-2" data-name="Слой 1">
    <g>
      <g>
        <path class="cls-1" d="M52.96,1.43l25.31,73.76h-17.38l-3.06-9.1-5.66-16.75-10.68-31.64-1.32-3.92-1.33,3.92-10.78,31.64-.63,1.86h11.68l4.68,13.95H22.64l-.32,.95-3.09,9.1H1.93L27.15,1.43h25.81M53.86,.03H26.21l-.09,.1L0,76.5l.13,.1H20.14l.13-.1,3.38-9.96h22.08l-5.63-16.75h-10.73l10.78-31.64,10.68,31.64,5.66,16.75,3.35,9.96,.09,.1h20.14l.13-.1L53.99,.13l-.13-.1h0Z"/>
        <path class="cls-1" d="M208.71,.09V76.5l-.09,.09h-20.24l-.13-.09V28.56l-28.59,48.04h-9.2l-24.98-41.96c.66-1.39,1.17-2.88,1.58-4.46,.38-1.42,.63-2.94,.82-4.65,.03-.32,.06-.63,.06-.95,0-3.26-.41-6.1-1.2-8.73-1.58-5.22-4.43-9.52-8.51-12.71-1.55-1.2-3.19-2.25-4.97-3.13h12.78l29.03,48.26L183.98,0h24.63l.09,.09Z"/>
        <path class="cls-1" d="M124.85,76.4l-.13,.09h-20.11l-.09-.09-3.1-9.17-.25-.76-2.91-8.67-2.72-8.1-1.01-2.97h-21.19l-5.79-16.89h27.01c1.33,0,2.56-.13,3.7-.41,1.11-.22,2.12-.6,3.04-1.08,.03-.03,.09-.06,.13-.06,1.77-1.04,2.69-2.69,2.69-4.93s-.92-4.02-2.69-5.03c-.03-.03-.09-.03-.13-.06-.92-.51-1.93-.89-3.04-1.11-1.14-.28-2.37-.41-3.7-.41h-31.5L57.3,0h40.95c1.08,0,2.15,.03,3.16,.13h.09c.6,.06,1.14,.13,1.71,.19,5.09,.7,9.46,2.47,13.06,5.28,3.57,2.81,6.04,6.51,7.43,11.16,.79,2.53,1.08,5.15,1.08,7.81,0,.22-.03,.51-.03,.73-.16,1.45-.41,2.81-.76,4.11-.16,.6-.32,1.2-.54,1.8v.03c-.44,1.26-.95,2.47-1.58,3.57-1.39,2.53-3.29,4.68-5.69,6.42-.06,.03-.13,.09-.19,.13-.82,.6-1.68,1.11-2.62,1.61l.22,.66,.82,2.37,7.46,21.73,2.97,8.66Z"/>
      </g>
      <g>
        <path class="cls-1" d="M3.42,89.61l-.51,.96v3.22H1.27v-10.48h1.65v4.56l2.19-4.56h1.62l-2.29,4.67,2.29,5.81h-1.69l-1.6-4.18Z"/>
        <path class="cls-1" d="M12.78,93.78h-1.66l-.28-1.9h-2.02l-.28,1.9h-1.51l1.68-10.48h2.41l1.68,10.48Zm-3.76-3.32h1.59l-.79-5.3-.79,5.3Z"/>
        <path class="cls-1" d="M14.8,83.3v4.04c0,.38,.08,.64,.23,.79,.15,.15,.36,.22,.62,.22s.45-.07,.6-.2c.15-.13,.23-.37,.25-.7v-4.16h1.65v10.48h-1.65v-4.03c-.14,.05-.28,.08-.43,.1-.15,.02-.3,.02-.47,.02-.81,0-1.42-.23-1.83-.68-.41-.45-.62-1.1-.62-1.95v-3.94h1.65Z"/>
        <path class="cls-1" d="M20.99,87.72h2.26v1.5h-2.26v3.07h2.84v1.5h-4.49v-10.48h4.49v1.5h-2.84v2.92Z"/>
        <path class="cls-1" d="M29.57,89.87v1.39c0,.85-.21,1.5-.62,1.95-.41,.45-1.03,.68-1.83,.68s-1.42-.23-1.83-.68c-.41-.45-.62-1.11-.62-1.95v-5.45c0-.85,.21-1.5,.62-1.95,.41-.45,1.03-.68,1.83-.68s1.42,.23,1.83,.68c.41,.45,.62,1.1,.62,1.95v1.02h-1.56v-1.12c0-.38-.08-.65-.23-.8-.15-.15-.36-.23-.62-.23s-.47,.08-.62,.23c-.15,.16-.23,.42-.23,.8v5.66c0,.38,.08,.64,.23,.79,.15,.15,.36,.22,.62,.22s.47-.07,.62-.22c.15-.15,.23-.41,.23-.79v-1.5h1.56Z"/>
        <path class="cls-1" d="M30.17,83.3h5.09v1.5h-1.72v8.98h-1.65v-8.98h-1.72v-1.5Z"/>
        <path class="cls-1" d="M38.49,83.3c.86,0,1.48,.2,1.86,.6,.38,.4,.58,1,.58,1.81v.37c0,.54-.08,.98-.25,1.33-.17,.35-.44,.61-.81,.78,.45,.17,.77,.45,.95,.83,.18,.38,.28,.86,.28,1.41v.85c0,.81-.21,1.42-.63,1.85-.42,.42-1.04,.64-1.87,.64h-2.59v-10.48h2.48Zm-.84,1.5v2.77h.64c.31,0,.55-.08,.73-.24,.17-.16,.26-.45,.26-.87v-.58c0-.38-.07-.65-.2-.82-.13-.17-.35-.25-.64-.25h-.79Zm0,4.27v3.22h.94c.28,0,.49-.07,.64-.22,.14-.15,.22-.42,.22-.81v-.91c0-.49-.08-.82-.25-1-.16-.18-.44-.27-.82-.27h-.73Z"/>
        <path class="cls-1" d="M43.71,87.72h2.26v1.5h-2.26v3.07h2.84v1.5h-4.49v-10.48h4.49v1.5h-2.84v2.92Z"/>
        <path class="cls-1" d="M49.18,93.78h-1.65v-10.48h1.65v4.49h1.87v-4.49h1.68v10.48h-1.68v-4.49h-1.87v4.49Z"/>
        <path class="cls-1" d="M55.57,93.78h-1.65v-10.48h1.65v4.49h1.87v-4.49h1.68v10.48h-1.68v-4.49h-1.87v4.49Z"/>
        <path class="cls-1" d="M60.16,85.82c0-.85,.21-1.5,.64-1.95s1.05-.68,1.86-.68,1.43,.23,1.86,.68,.64,1.1,.64,1.95v5.45c0,.85-.22,1.5-.64,1.95s-1.05,.68-1.86,.68-1.43-.23-1.86-.68-.64-1.11-.64-1.95v-5.45Zm1.65,5.55c0,.38,.08,.65,.23,.8,.15,.15,.36,.23,.62,.23s.47-.08,.62-.23,.23-.42,.23-.8v-5.66c0-.38-.08-.65-.23-.8-.15-.15-.36-.23-.62-.23s-.47,.08-.62,.23c-.15,.16-.23,.42-.23,.8v5.66Z"/>
        <path class="cls-1" d="M67.86,87.72h2.26v1.5h-2.26v3.07h2.84v1.5h-4.49v-10.48h4.49v1.5h-2.84v2.92Z"/>
        <path class="cls-1" d="M78.75,89.87v1.39c0,.85-.21,1.5-.62,1.95-.41,.45-1.03,.68-1.83,.68s-1.42-.23-1.83-.68c-.41-.45-.62-1.11-.62-1.95v-5.45c0-.85,.21-1.5,.62-1.95,.41-.45,1.03-.68,1.83-.68s1.42,.23,1.83,.68c.41,.45,.62,1.1,.62,1.95v1.02h-1.56v-1.12c0-.38-.08-.65-.23-.8-.15-.15-.36-.23-.62-.23s-.47,.08-.62,.23c-.15,.16-.23,.42-.23,.8v5.66c0,.38,.08,.64,.23,.79,.15,.15,.36,.22,.62,.22s.47-.07,.62-.22c.15-.15,.23-.41,.23-.79v-1.5h1.56Z"/>
        <path class="cls-1" d="M81.45,93.78h-1.65v-10.48h1.65v4.49h1.87v-4.49h1.68v10.48h-1.68v-4.49h-1.87v4.49Z"/>
        <path class="cls-1" d="M91.5,93.78h-1.66l-.28-1.9h-2.02l-.28,1.9h-1.51l1.68-10.48h2.41l1.68,10.48Zm-3.76-3.32h1.59l-.79-5.3-.79,5.3Z"/>
        <path class="cls-1" d="M94.68,83.3c.83,0,1.44,.22,1.85,.66s.61,1.08,.61,1.93v1.36c0,.85-.2,1.49-.61,1.93s-1.02,.66-1.85,.66h-.78v3.94h-1.65v-10.48h2.42Zm-.78,1.5v3.55h.78c.26,0,.46-.07,.6-.21s.21-.4,.21-.78v-1.57c0-.38-.07-.64-.21-.78s-.34-.21-.6-.21h-.78Z"/>
        <path class="cls-1" d="M97.58,93.78c.08-.2,.13-.4,.15-.59,.02-.19,.03-.42,.03-.68v-1.62c0-.55,.08-1.02,.23-1.4s.44-.66,.86-.83c-.72-.34-1.08-1.05-1.08-2.13v-.82c0-.81,.19-1.41,.58-1.81,.38-.4,1.01-.6,1.86-.6h2.48v10.48h-1.65v-4.27h-.57c-.38,0-.65,.1-.82,.3-.17,.2-.25,.54-.25,1.03v1.65c0,.21,0,.38,0,.52,0,.14-.02,.25-.03,.34s-.03,.17-.05,.22c-.02,.06-.04,.12-.06,.19h-1.68Zm2.68-8.98c-.29,0-.5,.08-.64,.25-.13,.17-.2,.44-.2,.82v1.03c0,.42,.09,.71,.26,.87s.42,.24,.73,.24h.64v-3.22h-.79Z"/>
        <path class="cls-1" d="M105.14,93.78h-1.69l2.29-5.81-2.29-4.67h1.62l2.17,4.53v-4.53h1.66v4.53l2.17-4.53h1.62l-2.29,4.67,2.29,5.81h-1.69l-1.6-4.18-.49,.93v3.25h-1.66v-3.25l-.49-.93-1.6,4.18Z"/>
        <path class="cls-1" d="M115.08,87.72h2.26v1.5h-2.26v3.07h2.84v1.5h-4.49v-10.48h4.49v1.5h-2.84v2.92Z"/>
        <path class="cls-1" d="M120.54,93.78h-1.65v-10.48h1.65v4.49h1.87v-4.49h1.68v10.48h-1.68v-4.49h-1.87v4.49Z"/>
        <path class="cls-1" d="M126.98,93.78h-1.69v-10.48h1.47v6.27l1.69-6.27h2.07v10.48h-1.48v-7.59l-2.05,7.59Z"/>
        <path class="cls-1" d="M133.35,87.72h2.26v1.5h-2.26v3.07h2.84v1.5h-4.49v-10.48h4.49v1.5h-2.84v2.92Z"/>
        <path class="cls-1" d="M141.18,93.78h-1.69v-10.48h1.47v6.27l1.69-6.27h2.07v10.48h-1.48v-7.59l-2.05,7.59Z"/>
        <path class="cls-1" d="M151.34,85.71c0-.38-.08-.65-.23-.8-.15-.15-.36-.23-.62-.23s-.47,.08-.62,.23c-.15,.16-.23,.42-.23,.8v1.12h-1.56v-1.02c0-.85,.21-1.5,.62-1.95,.41-.45,1.03-.68,1.83-.68s1.42,.23,1.83,.68c.41,.45,.62,1.1,.62,1.95v5.45c0,.85-.21,1.5-.62,1.95-.41,.45-1.03,.68-1.83,.68s-1.42-.23-1.83-.68c-.41-.45-.62-1.11-.62-1.95v-1.39h1.56v1.5c0,.38,.08,.64,.23,.79,.15,.15,.36,.22,.62,.22s.47-.07,.62-.22c.15-.15,.23-.41,.23-.79v-2.16h-2.26v-1.5h2.26v-2Z"/>
        <path class="cls-1" d="M156.19,89.61l-.51,.96v3.22h-1.65v-10.48h1.65v4.56l2.19-4.56h1.62l-2.29,4.67,2.29,5.81h-1.69l-1.6-4.18Z"/>
        <path class="cls-1" d="M161.92,93.78h-1.69v-10.48h1.47v6.27l1.69-6.27h2.07v10.48h-1.48v-7.59l-2.05,7.59Z"/>
        <path class="cls-1" d="M168.3,93.78h-1.65v-10.48h5.19v10.48h-1.68v-8.98h-1.87v8.98Z"/>
        <path class="cls-1" d="M174.74,93.78h-1.69v-10.48h1.47v6.27l1.69-6.27h2.07v10.48h-1.48v-7.59l-2.05,7.59Z"/>
        <path class="cls-1" d="M181.89,83.3c.83,0,1.44,.22,1.85,.66s.61,1.08,.61,1.93v1.36c0,.85-.2,1.49-.61,1.93s-1.02,.66-1.85,.66h-.78v3.94h-1.65v-10.48h2.42Zm-.78,1.5v3.55h.78c.26,0,.46-.07,.6-.21s.21-.4,.21-.78v-1.57c0-.38-.07-.64-.21-.78s-.34-.21-.6-.21h-.78Z"/>
        <path class="cls-1" d="M184.95,85.82c0-.85,.21-1.5,.64-1.95s1.05-.68,1.86-.68,1.43,.23,1.86,.68,.64,1.1,.64,1.95v5.45c0,.85-.22,1.5-.64,1.95s-1.05,.68-1.86,.68-1.43-.23-1.86-.68-.64-1.11-.64-1.95v-5.45Zm1.65,5.55c0,.38,.08,.65,.23,.8,.15,.15,.36,.23,.62,.23s.47-.08,.62-.23,.23-.42,.23-.8v-5.66c0-.38-.08-.65-.23-.8-.15-.15-.36-.23-.62-.23s-.47,.08-.62,.23c-.15,.16-.23,.42-.23,.8v5.66Z"/>
        <path class="cls-1" d="M193.48,83.3c.86,0,1.48,.2,1.86,.6,.38,.4,.58,1,.58,1.81v.37c0,.54-.08,.98-.25,1.33-.17,.35-.44,.61-.81,.78,.45,.17,.77,.45,.95,.83,.18,.38,.28,.86,.28,1.41v.85c0,.81-.21,1.42-.63,1.85-.42,.42-1.04,.64-1.87,.64h-2.59v-10.48h2.48Zm-.84,1.5v2.77h.64c.31,0,.55-.08,.73-.24,.17-.16,.26-.45,.26-.87v-.58c0-.38-.07-.65-.2-.82-.13-.17-.35-.25-.64-.25h-.79Zm0,4.27v3.22h.94c.28,0,.49-.07,.64-.22,.14-.15,.22-.42,.22-.81v-.91c0-.49-.08-.82-.25-1-.16-.18-.44-.27-.82-.27h-.73Z"/>
        <path class="cls-1" d="M199.21,89.61l-.51,.96v3.22h-1.65v-10.48h1.65v4.56l2.19-4.56h1.62l-2.29,4.67,2.29,5.81h-1.69l-1.6-4.18Z"/>
        <path class="cls-1" d="M208.56,93.78h-1.66l-.28-1.9h-2.02l-.28,1.9h-1.51l1.68-10.48h2.41l1.68,10.48Zm-3.76-3.32h1.59l-.79-5.3-.79,5.3Z"/>
      </g>
    </g>
  </g>
</svg>