<?xml version="1.0" standalone="no"?>
<!DOCTYPE svg PUBLIC "-//W3C//DTD SVG 20010904//EN"
 "http://www.w3.org/TR/2001/REC-SVG-20010904/DTD/svg10.dtd">
<svg version="1.0" xmlns="http://www.w3.org/2000/svg"
 width="1672.000000pt" height="1672.000000pt" viewBox="0 0 1672.000000 1672.000000"
 preserveAspectRatio="xMidYMid meet">
<metadata>
Created by potrace 1.14, written by Peter Selinger 2001-2017
</metadata>
<g transform="translate(0.000000,1672.000000) scale(0.100000,-0.100000)"
fill="#000000" stroke="none">
<path d="M2095 12108 c-3 -7 -23 -65 -44 -128 -22 -63 -69 -203 -106 -310 -37
-107 -98 -285 -135 -395 -38 -110 -121 -353 -185 -540 -64 -187 -147 -430
-185 -540 -37 -110 -98 -288 -135 -395 -109 -319 -202 -591 -285 -835 -131
-384 -216 -632 -273 -800 -125 -363 -370 -1081 -527 -1540 -43 -126 -108 -317
-144 -422 -36 -106 -66 -200 -66 -208 0 -13 95 -15 810 -15 l810 0 10 23 c6
12 68 192 138 400 l128 377 871 0 c479 0 878 2 886 6 12 4 -26 128 -209 671
-123 366 -227 669 -230 674 -3 5 -190 9 -429 9 l-424 0 69 203 c86 256 220
648 398 1172 77 226 195 569 261 764 106 312 131 380 131 359 0 -3 106 -320
236 -704 259 -769 437 -1296 627 -1859 68 -203 163 -485 211 -625 47 -140 178
-527 290 -860 l204 -605 813 -3 c447 -1 816 1 820 5 4 5 -36 132 -88 283 -52
151 -119 345 -148 430 -29 85 -103 299 -163 475 -61 176 -143 415 -182 530
-88 256 -160 468 -233 680 -31 88 -137 399 -237 690 -100 292 -288 838 -417
1215 -129 377 -259 755 -288 840 -29 85 -113 328 -185 540 -73 212 -138 400
-146 418 l-13 32 -1116 0 c-883 0 -1117 -3 -1120 -12z m2178 -185 c14 -43 71
-211 127 -373 123 -358 190 -552 280 -815 137 -400 241 -705 410 -1195 56
-162 112 -326 125 -365 13 -38 69 -203 125 -365 162 -470 337 -979 360 -1050
9 -26 46 -136 220 -640 56 -162 132 -385 170 -495 37 -110 93 -273 123 -362
l56 -163 -690 0 c-379 0 -689 1 -689 3 0 2 -32 97 -71 213 -40 115 -131 387
-204 604 -73 217 -242 717 -375 1110 -133 393 -252 747 -265 785 -13 39 -136
403 -273 810 -138 407 -298 882 -356 1055 -126 374 -115 344 -121 338 -3 -3
-28 -72 -56 -154 -66 -192 -305 -891 -424 -1244 -52 -151 -157 -462 -235 -690
-253 -739 -308 -905 -303 -912 2 -5 213 -8 468 -8 l463 0 68 -202 c37 -112
120 -359 185 -550 l117 -348 -845 -2 -846 -3 -136 -402 -136 -403 -687 0 -687
0 95 278 c53 152 127 369 166 482 106 313 199 585 273 800 37 107 102 299 145
425 92 271 318 932 397 1160 57 167 140 411 273 800 43 127 110 322 148 435
168 492 207 606 330 965 140 410 170 498 183 533 l9 22 1028 0 1029 0 26 -77z"/>
<path d="M4627 12018 c19 -57 59 -173 88 -258 47 -136 162 -471 294 -855 23
-66 45 -123 49 -127 4 -4 622 -9 1372 -11 l1365 -3 100 -27 c142 -38 271 -104
329 -168 76 -85 116 -194 116 -319 0 -272 -173 -432 -534 -495 -76 -13 -247
-15 -1237 -15 -1096 0 -1149 -1 -1149 -18 0 -10 10 -45 21 -77 12 -33 52 -150
89 -260 38 -110 114 -333 170 -495 56 -162 118 -344 139 -405 l38 -110 849 -3
849 -2 104 -308 c57 -169 231 -689 388 -1157 157 -467 291 -865 299 -882 l13
-33 815 0 c449 0 816 4 816 8 0 5 -21 69 -46 143 -25 74 -70 204 -99 289 -29
85 -157 459 -285 830 -127 371 -256 747 -286 835 -31 88 -86 250 -125 359 -38
110 -69 205 -69 211 0 7 38 35 84 63 463 283 726 706 812 1305 27 190 0 477
-67 707 -98 341 -253 608 -477 821 -267 256 -637 441 -1024 513 -250 47 -205
46 -2074 46 l-1763 0 36 -102z"/>
<path d="M9080 12115 c0 -2 19 -14 43 -26 229 -115 496 -328 650 -519 177
-219 320 -501 392 -774 65 -242 96 -552 75 -735 -26 -229 -83 -463 -150 -621
-18 -41 -33 -82 -33 -90 -1 -8 297 -517 662 -1130 365 -613 815 -1368 999
-1677 l335 -563 371 0 372 0 121 203 c66 111 551 927 1078 1812 527 886 985
1656 1019 1713 l61 102 3 -1915 2 -1915 820 0 820 0 0 3070 0 3070 -994 0
-993 0 -130 -217 c-72 -120 -548 -915 -1058 -1768 -510 -852 -970 -1621 -1022
-1708 -53 -87 -99 -155 -103 -150 -4 4 -526 871 -1160 1926 l-1153 1917 -513
0 c-283 0 -514 -2 -514 -5z"/>
<path d="M707 5453 c-6 -9 -39 -209 -117 -695 -27 -174 -31 -159 43 -156 l62
3 14 78 14 77 74 0 c82 0 76 6 91 -100 l7 -55 70 0 70 0 -3 35 c-2 31 -28 200
-104 675 l-23 140 -97 3 c-53 1 -99 -1 -101 -5z m118 -382 c14 -95 25 -177 25
-182 0 -5 -25 -9 -56 -9 -53 0 -56 1 -51 23 3 12 16 95 28 184 13 89 24 161
26 160 1 -2 14 -81 28 -176z"/>
<path d="M1060 5265 c0 -213 6 -244 57 -298 32 -33 78 -47 156 -47 l57 0 0
-160 0 -161 68 3 67 3 0 425 0 425 -67 3 -68 3 0 -170 c0 -164 -7 -217 -33
-233 -19 -12 -51 -9 -73 6 -17 13 -19 31 -24 203 l-5 188 -67 3 -68 3 0 -196z"/>
<path d="M2085 5446 c-40 -17 -82 -67 -95 -114 -13 -49 -13 -555 0 -604 14
-48 55 -97 97 -114 52 -22 161 -18 203 7 68 42 88 91 89 217 l1 92 -65 0 -65
0 0 -72 c0 -98 -14 -123 -65 -123 -62 0 -65 12 -65 295 0 283 3 295 65 295 49
0 65 -25 65 -107 l0 -58 65 0 65 0 0 74 c0 40 -5 88 -11 107 -14 40 -53 85
-91 105 -34 18 -153 18 -193 0z"/>
<path d="M2427 5454 c-4 -4 -7 -36 -7 -71 l0 -63 70 0 70 0 0 -360 0 -360 70
0 70 0 0 360 0 359 68 3 67 3 0 65 0 65 -201 3 c-110 1 -203 -1 -207 -4z"/>
<path d="M2898 5454 c-5 -4 -8 -198 -8 -431 l0 -423 110 0 c138 0 202 13 245
51 45 40 60 87 59 194 0 106 -15 155 -54 189 -29 24 -29 24 -9 42 34 31 49 81
49 165 0 114 -26 164 -100 197 -38 16 -279 30 -292 16z m236 -156 c10 -14 16
-44 16 -79 0 -72 -19 -98 -78 -106 l-42 -6 0 107 0 106 44 0 c35 0 48 -5 60
-22z m6 -338 c17 -17 20 -33 20 -108 0 -55 -4 -92 -12 -100 -7 -7 -36 -12 -65
-12 l-53 0 0 120 0 120 45 0 c32 0 51 -6 65 -20z"/>
<path d="M3815 5448 c-3 -7 -4 -200 -3 -428 l3 -415 68 -3 67 -3 0 181 0 180
70 0 70 0 2 -177 3 -178 70 0 70 0 0 425 0 425 -70 0 -70 0 -3 -177 -2 -178
-70 0 -70 0 -2 178 -3 177 -63 3 c-44 2 -64 -1 -67 -10z"/>
<path d="M4325 5447 c-3 -6 -4 -199 -3 -427 l3 -415 68 -3 67 -3 0 181 0 180
70 0 70 0 2 -177 3 -178 70 0 70 0 0 425 0 425 -70 0 -70 0 -3 -177 -2 -178
-70 0 -70 0 0 180 0 180 -65 0 c-43 0 -67 -4 -70 -13z"/>
<path d="M4924 5441 c-44 -20 -74 -56 -92 -110 -8 -23 -12 -125 -11 -305 0
-309 5 -336 72 -390 34 -27 48 -31 113 -34 90 -5 113 0 155 35 65 55 69 76 69
391 0 297 -4 326 -48 375 -51 57 -176 75 -258 38z m150 -133 c14 -19 16 -63
16 -278 0 -288 -3 -300 -64 -300 -60 0 -61 5 -61 300 0 295 1 300 61 300 23 0
38 -7 48 -22z"/>
<path d="M6025 5448 c-35 -19 -66 -52 -86 -90 -17 -34 -19 -62 -19 -326 0
-234 3 -296 15 -323 35 -80 83 -109 183 -109 82 0 116 13 155 60 35 41 47 89
47 188 l0 83 -67 -3 -68 -3 -5 -88 c-5 -94 -12 -107 -61 -107 -57 0 -59 11
-59 302 0 244 1 266 18 281 20 19 59 22 82 7 10 -6 17 -32 20 -82 l5 -73 68
-3 67 -3 0 68 c0 37 -5 85 -10 105 -14 48 -55 97 -97 114 -39 17 -160 18 -188
2z"/>
<path d="M6395 5448 c-3 -7 -4 -200 -3 -428 l3 -415 70 0 70 0 3 178 2 177 65
0 65 0 2 -177 3 -178 73 -3 72 -3 -2 428 -3 428 -49 3 c-101 7 -96 16 -96
-183 l0 -175 -65 0 -65 0 -2 178 -3 177 -68 3 c-48 2 -69 -1 -72 -10z"/>
<path d="M7005 5448 c-2 -7 -18 -101 -35 -208 -17 -107 -44 -276 -60 -375 -16
-99 -30 -198 -32 -220 l-3 -40 62 -3 62 -3 6 33 c3 18 9 53 13 78 l8 45 74 0
75 0 8 -55 c16 -109 9 -100 88 -100 l72 0 -7 53 c-4 28 -25 162 -46 297 -22
135 -47 290 -56 345 -8 55 -19 114 -23 130 l-7 30 -97 3 c-73 2 -98 -1 -102
-10z m125 -393 c12 -88 24 -163 27 -167 2 -5 -22 -8 -55 -8 l-59 0 14 93 c7
50 18 129 24 175 7 46 15 80 19 75 4 -4 17 -80 30 -168z"/>
<path d="M7395 5449 c-3 -8 -4 -201 -3 -429 l3 -415 68 -3 67 -3 0 161 0 160
53 0 c74 0 118 15 154 52 44 47 53 86 53 223 0 108 -3 127 -23 166 -39 73 -84
91 -239 97 -102 4 -129 2 -133 -9z m239 -145 c12 -12 16 -38 16 -112 0 -122
-11 -142 -76 -142 l-44 0 0 135 0 135 44 0 c27 0 51 -6 60 -16z"/>
<path d="M7970 5449 c-93 -18 -133 -77 -138 -204 -5 -95 9 -152 45 -195 l26
-31 -26 -27 c-36 -38 -45 -87 -49 -247 l-2 -140 58 -3 c84 -4 86 -1 86 137 0
155 10 187 58 201 64 17 61 25 64 -162 l3 -173 70 0 70 0 0 425 0 425 -110 2
c-60 0 -130 -3 -155 -8z m130 -249 l0 -120 -42 0 c-66 0 -78 18 -78 117 0 111
7 123 70 123 l50 0 0 -120z"/>
<path d="M8296 5452 c-3 -6 35 -93 84 -194 l90 -184 -90 -227 c-50 -125 -90
-232 -90 -238 0 -6 28 -9 72 -7 l72 3 60 158 c33 86 63 157 67 157 17 0 24
-45 29 -175 l5 -140 70 0 70 0 5 145 c3 80 10 153 16 164 12 19 22 -4 101
-219 15 -38 31 -76 36 -82 10 -14 133 -18 140 -5 2 4 -36 108 -84 232 -49 123
-89 229 -89 235 0 5 40 91 89 190 48 99 86 183 84 188 -5 9 -115 9 -128 -1 -6
-4 -44 -77 -85 -163 l-75 -155 -3 150 c-1 93 -7 155 -14 163 -8 10 -30 13 -72
11 l-61 -3 -3 -170 -3 -170 -74 155 c-41 85 -79 162 -83 170 -10 17 -126 27
-136 12z"/>
<path d="M9525 5448 c-3 -7 -4 -200 -3 -428 l3 -415 70 0 70 0 3 178 2 177 70
0 70 0 0 -180 0 -180 70 0 70 0 -2 428 -3 427 -67 3 -68 3 0 -181 0 -180 -70
0 -70 0 -2 178 -3 177 -68 3 c-48 2 -69 -1 -72 -10z"/>
<path d="M10042 5448 c-9 -9 -12 -115 -12 -414 0 -221 3 -409 6 -418 5 -12 21
-16 74 -16 81 0 60 -41 155 310 37 134 68 247 71 249 2 2 4 -123 4 -278 l0
-282 63 3 62 3 0 425 0 425 -81 3 c-57 2 -84 -1 -91 -10 -6 -7 -34 -105 -64
-217 l-54 -205 -3 204 c-1 129 -6 208 -13 217 -14 16 -101 17 -117 1z"/>
<path d="M11175 5448 c-3 -7 -4 -200 -3 -428 l3 -415 67 -3 c56 -2 68 0 76 15
5 10 41 133 78 273 l69 255 5 -270 5 -270 63 -3 62 -3 -2 428 -3 428 -75 3
c-41 1 -80 -1 -86 -5 -5 -5 -37 -107 -70 -228 l-59 -220 -5 225 -5 225 -58 3
c-40 2 -59 -1 -62 -10z"/>
<path d="M11965 5446 c-40 -17 -82 -67 -95 -114 -5 -20 -10 -68 -10 -105 l0
-68 68 3 67 3 5 73 c5 78 14 92 62 92 45 0 58 -31 58 -137 l0 -93 -90 0 -90 0
0 -65 0 -65 90 0 90 0 0 -104 c0 -115 -9 -136 -58 -136 -50 0 -57 13 -62 107
l-5 88 -67 3 -68 3 0 -83 c0 -100 12 -147 47 -189 36 -43 80 -59 159 -59 79 0
133 26 167 80 21 34 22 43 22 350 0 307 -1 316 -22 350 -34 55 -87 80 -169 80
-38 -1 -83 -7 -99 -14z"/>
<path d="M12835 5448 c-3 -7 -4 -200 -3 -428 l3 -415 72 -3 72 -3 10 38 c6 21
23 88 39 148 16 61 45 166 63 235 l34 125 5 -270 5 -270 63 -3 62 -3 -2 428
-3 428 -75 3 c-41 1 -80 -1 -86 -5 -5 -5 -32 -89 -58 -188 -27 -99 -53 -198
-60 -220 -9 -34 -12 -6 -16 185 l-5 225 -58 3 c-40 2 -59 -1 -62 -10z"/>
<path d="M13357 5454 c-4 -4 -7 -198 -7 -431 l0 -424 68 3 67 3 3 358 2 357
70 0 70 0 0 -360 0 -360 70 0 70 0 -2 428 -3 427 -201 3 c-110 1 -203 -1 -207
-4z"/>
<path d="M13867 5454 c-4 -4 -7 -198 -7 -431 l0 -424 73 3 72 3 77 280 77 280
0 -283 1 -283 63 3 62 3 0 425 0 425 -83 3 c-98 3 -79 32 -153 -243 l-54 -200
-5 220 -5 220 -55 3 c-31 2 -59 0 -63 -4z"/>
<path d="M14375 5449 c-3 -8 -4 -201 -3 -429 l3 -415 64 -3 c45 -2 67 1 72 10
5 7 9 79 9 159 l0 146 69 5 c88 7 131 32 163 96 20 41 23 62 23 167 0 108 -2
125 -25 170 -40 79 -82 97 -242 103 -102 4 -129 2 -133 -9z m245 -148 c5 -11
10 -65 10 -120 0 -115 -9 -131 -70 -131 l-39 0 -3 135 -3 135 47 0 c37 0 50
-4 58 -19z"/>
<path d="M14910 5438 c-32 -16 -52 -36 -70 -68 l-25 -45 0 -295 c0 -331 2
-344 73 -398 31 -23 47 -27 119 -31 71 -3 88 0 120 19 86 51 91 73 92 410 1
257 -1 289 -18 325 -35 77 -85 105 -185 105 -44 0 -74 -6 -106 -22z m154 -130
c14 -19 16 -63 16 -278 0 -287 -3 -300 -64 -300 -17 0 -37 5 -44 12 -9 9 -12
86 -12 284 0 234 2 275 16 288 23 24 70 20 88 -6z"/>
<path d="M15300 5030 l0 -430 113 0 c240 1 301 49 301 240 1 110 -13 159 -54
194 -27 22 -28 25 -13 38 55 45 73 217 30 292 -43 76 -102 96 -278 96 l-99 0
0 -430z m244 268 c10 -14 16 -44 16 -79 0 -72 -19 -98 -78 -106 l-42 -6 0 107
0 106 44 0 c35 0 48 -5 60 -22z m6 -338 c17 -17 20 -33 20 -101 0 -108 -7
-119 -75 -119 l-55 0 0 120 0 120 45 0 c32 0 51 -6 65 -20z"/>
<path d="M16383 5448 c-6 -7 -27 -121 -48 -253 -21 -132 -50 -316 -66 -410
-15 -93 -24 -174 -20 -178 5 -4 35 -7 67 -5 l59 3 10 75 10 75 76 3 77 3 7
-58 c12 -108 8 -103 84 -103 37 0 70 2 73 5 3 3 2 25 -3 48 -4 23 -22 132 -39
242 -56 354 -89 545 -95 555 -9 15 -180 13 -192 -2z m117 -378 c11 -80 23
-155 25 -167 5 -22 2 -23 -51 -23 l-57 0 6 48 c11 94 38 277 44 292 8 21 9 14
33 -150z"/>
<path d="M110 5025 l0 -426 68 3 67 3 5 140 c4 104 9 146 20 162 15 20 19 14
77 -140 l61 -162 72 -3 72 -3 -6 26 c-4 14 -44 121 -90 236 l-84 210 89 184
c49 101 89 186 89 189 0 3 -31 6 -68 6 l-69 0 -81 -167 -81 -168 0 168 -1 167
-70 0 -70 0 0 -425z"/>
<path d="M1552 5028 l3 -423 183 -3 183 -2 -3 67 -3 68 -107 3 -108 3 0 114 0
115 90 0 90 0 0 65 0 65 -90 0 -90 0 0 110 0 110 110 0 110 0 0 65 0 65 -185
0 -185 0 2 -422z"/>
<path d="M3372 5028 l3 -423 183 -3 183 -2 -3 67 -3 68 -107 3 -108 3 0 114 0
115 90 0 91 0 -3 63 -3 62 -87 3 -88 3 0 109 0 110 110 0 110 0 0 65 0 65
-185 0 -185 0 2 -422z"/>
<path d="M5310 5025 l0 -425 183 2 182 3 3 44 c7 91 6 91 -118 91 l-110 0 0
115 0 115 90 0 90 0 0 65 0 65 -90 0 -90 0 0 110 0 109 113 3 112 3 0 60 0 60
-182 3 -183 2 0 -425z"/>
<path d="M9090 5025 l0 -425 183 2 182 3 0 65 0 65 -112 3 -113 3 0 114 0 115
90 0 90 0 0 65 0 65 -90 0 -90 0 0 110 0 109 113 3 112 3 3 63 3 62 -186 0
-185 0 0 -425z"/>
<path d="M10550 5025 l0 -425 183 2 182 3 0 65 0 65 -112 3 -113 3 0 114 0
115 90 0 90 0 0 65 0 65 -90 0 -90 0 0 110 0 110 115 0 115 0 0 65 0 65 -185
0 -185 0 0 -425z"/>
<path d="M12340 5025 l0 -425 70 0 70 0 0 133 c1 105 4 139 18 164 l17 33 62
-163 61 -162 72 -3 72 -3 -6 26 c-4 14 -43 117 -87 228 -44 111 -81 209 -81
217 -1 8 36 89 80 179 45 90 84 172 87 182 6 17 0 19 -63 19 l-69 0 -81 -167
-81 -168 0 168 -1 167 -70 0 -70 0 0 -425z"/>
<path d="M15782 5028 l3 -423 68 -3 67 -3 0 130 c0 105 3 135 18 160 9 17 19
31 22 31 3 0 27 -60 54 -133 74 -199 65 -187 141 -187 35 0 66 3 68 8 3 4 -36
110 -86 236 l-90 229 28 56 c15 31 56 116 91 189 l63 132 -70 0 -70 0 -84
-172 -84 -173 0 173 -1 172 -70 0 -70 0 2 -422z"/>
</g>
</svg>
